<?xml version="1.0" encoding="UTF-8" standalone="no"?>
<!-- Created with Serif DrawPlus 11, 0, 3, 23 (Feb 25, 14:12:55) (http://www.serif.com) -->
<svg version="1.1" xmlns="http://www.w3.org/2000/svg" xmlns:xlink="http://www.w3.org/1999/xlink" width="216.335" height="216.735">
	<defs>
		<radialGradient id="grad_dp_001" gradientUnits="userSpaceOnUse" cx="397.529" cy="162.179" r="103.077">
			<stop offset="0" stop-color="white"/>
			<stop offset="1" stop-color="#467f40"/>
		</radialGradient>
		<radialGradient id="grad_dp_002" gradientUnits="userSpaceOnUse" cx="397.763" cy="161.347" r="81.016">
			<stop offset="0" stop-color="white"/>
			<stop offset="1" stop-color="#5aab53"/>
		</radialGradient>
	</defs>
	<g id="dp_group001" transform="matrix(1,0,0,1,-289.395,-53.8453)">
		<path id="dp_path002" fill="none" fill-rule="evenodd" stroke="#196480" stroke-width="0.666667" stroke-dasharray="1.6,1.6" d="M 397.561,54.1787 C 457.116,54.1787 505.395,102.547 505.395,162.212 C 505.395,221.877 457.116,270.245 397.561,270.245 C 338.007,270.245 289.728,221.877 289.728,162.212 C 289.728,102.547 338.007,54.1787 397.561,54.1787 Z "/>
		<path id="dp_path003" fill="url(#grad_dp_001)" fill-rule="evenodd" stroke="#196480" stroke-width="2" d="M 397.528,59.512 C 454.229,59.512 500.195,105.477 500.195,162.179 C 500.195,218.88 454.229,264.845 397.528,264.845 C 340.827,264.845 294.861,218.88 294.861,162.179 C 294.861,105.477 340.827,59.512 397.528,59.512 Z "/>
		<path id="dp_path004" fill="url(#grad_dp_002)" fill-rule="evenodd" stroke="#196480" stroke-width="2" d="M 397.761,80.6533 C 442.327,80.6533 478.453,116.78 478.453,161.345 C 478.453,205.911 442.327,242.037 397.761,242.037 C 353.196,242.037 317.069,205.911 317.069,161.345 C 317.069,116.78 353.196,80.6533 397.761,80.6533 Z "/>
		<g id="dp_group005">
			<g id="dp_group006">
				<path id="dp_path007" fill="white" fill-rule="evenodd" d="M 398.661,62.112 L 400.131,66.148 L 403.261,65.0987 L 402.207,68.216 L 406.261,69.6787 L 402.207,71.1413 L 403.261,74.2587 L 400.131,73.2093 L 398.661,77.2453 L 397.192,73.2093 L 394.061,74.2587 L 395.116,71.1413 L 391.061,69.6787 L 395.116,68.216 L 394.061,65.0987 L 397.192,66.148 Z "/>
				<path id="dp_path008" fill="white" fill-rule="evenodd" d="M 490.161,154.845 L 491.624,158.881 L 494.741,157.832 L 493.692,160.949 L 497.728,162.412 L 493.692,163.875 L 494.741,166.992 L 491.624,165.943 L 490.161,169.979 L 488.699,165.943 L 485.581,166.992 L 486.631,163.875 L 482.595,162.412 L 486.631,160.949 L 485.581,157.832 L 488.699,158.881 Z "/>
				<path id="dp_path009" fill="white" fill-rule="evenodd" d="M 485.661,127.579 L 487.131,131.615 L 490.261,130.565 L 489.207,133.683 L 493.261,135.145 L 489.207,136.608 L 490.261,139.725 L 487.131,138.676 L 485.661,142.712 L 484.192,138.676 L 481.061,139.725 L 482.116,136.608 L 478.061,135.145 L 482.116,133.683 L 481.061,130.565 L 484.192,131.615 Z "/>
				<path id="dp_path010" fill="white" fill-rule="evenodd" d="M 428.695,67.8453 L 430.157,71.8813 L 433.275,70.832 L 432.225,73.9493 L 436.261,75.412 L 432.225,76.8747 L 433.275,79.992 L 430.157,78.9427 L 428.695,82.9787 L 427.232,78.9427 L 424.115,79.992 L 425.164,76.8747 L 421.128,75.412 L 425.164,73.9493 L 424.115,70.832 L 427.232,71.8813 Z "/>
				<path id="dp_path011" fill="white" fill-rule="evenodd" d="M 454.728,81.6453 L 456.197,85.6813 L 459.328,84.632 L 458.273,87.7493 L 462.328,89.212 L 458.273,90.6747 L 459.328,93.792 L 456.197,92.7427 L 454.728,96.7787 L 453.259,92.7427 L 450.128,93.792 L 451.183,90.6747 L 447.128,89.212 L 451.183,87.7493 L 450.128,84.632 L 453.259,85.6813 Z "/>
				<path id="dp_path012" fill="white" fill-rule="evenodd" d="M 473.028,101.179 L 474.491,105.233 L 477.608,104.179 L 476.559,107.309 L 480.595,108.779 L 476.559,110.248 L 477.608,113.379 L 474.491,112.324 L 473.028,116.379 L 471.565,112.324 L 468.448,113.379 L 469.497,110.248 L 465.461,108.779 L 469.497,107.309 L 468.448,104.179 L 471.565,105.233 Z "/>
			</g>
			<path id="dp_path013" fill="white" fill-rule="evenodd" d="M 304.895,154.979 L 303.432,159.015 L 300.315,157.965 L 301.364,161.083 L 297.328,162.545 L 301.364,164.008 L 300.315,167.125 L 303.432,166.076 L 304.895,170.112 L 306.357,166.076 L 309.475,167.125 L 308.425,164.008 L 312.461,162.545 L 308.425,161.083 L 309.475,157.965 L 306.357,159.015 Z "/>
			<path id="dp_path014" fill="white" fill-rule="evenodd" d="M 309.395,127.712 L 307.925,131.748 L 304.795,130.699 L 305.849,133.816 L 301.795,135.279 L 305.849,136.741 L 304.795,139.859 L 307.925,138.809 L 309.395,142.845 L 310.864,138.809 L 313.995,139.859 L 312.94,136.741 L 316.995,135.279 L 312.94,133.816 L 313.995,130.699 L 310.864,131.748 Z "/>
			<path id="dp_path015" fill="white" fill-rule="evenodd" d="M 366.361,67.9787 L 364.899,72.0147 L 361.781,70.9653 L 362.831,74.0827 L 358.795,75.5453 L 362.831,77.008 L 361.781,80.1253 L 364.899,79.076 L 366.361,83.112 L 367.824,79.076 L 370.941,80.1253 L 369.892,77.008 L 373.928,75.5453 L 369.892,74.0827 L 370.941,70.9653 L 367.824,72.0147 Z "/>
			<path id="dp_path016" fill="white" fill-rule="evenodd" d="M 340.328,81.7787 L 338.859,85.8147 L 335.728,84.7653 L 336.783,87.8827 L 332.728,89.3453 L 336.783,90.808 L 335.728,93.9253 L 338.859,92.876 L 340.328,96.912 L 341.797,92.876 L 344.928,93.9253 L 343.873,90.808 L 347.928,89.3453 L 343.873,87.8827 L 344.928,84.7653 L 341.797,85.8147 Z "/>
			<path id="dp_path017" fill="white" fill-rule="evenodd" d="M 322.028,101.312 L 320.565,105.348 L 317.448,104.299 L 318.497,107.416 L 314.461,108.879 L 318.497,110.341 L 317.448,113.459 L 320.565,112.409 L 322.028,116.445 L 323.491,112.409 L 326.608,113.459 L 325.559,110.341 L 329.595,108.879 L 325.559,107.416 L 326.608,104.299 L 323.491,105.348 Z "/>
		</g>
		<path id="dp_path018" fill="white" fill-rule="evenodd" d="M 309.395,196.645 L 307.925,192.609 L 304.795,193.659 L 305.849,190.541 L 301.795,189.079 L 305.849,187.616 L 304.795,184.499 L 307.925,185.548 L 309.395,181.512 L 310.864,185.548 L 313.995,184.499 L 312.94,187.616 L 316.995,189.079 L 312.94,190.541 L 313.995,193.659 L 310.864,192.609 Z "/>
		<path id="dp_path019" fill="white" fill-rule="evenodd" d="M 366.361,256.379 L 364.899,252.343 L 361.781,253.392 L 362.831,250.275 L 358.795,248.812 L 362.831,247.349 L 361.781,244.232 L 364.899,245.281 L 366.361,241.245 L 367.824,245.281 L 370.941,244.232 L 369.892,247.349 L 373.928,248.812 L 369.892,250.275 L 370.941,253.392 L 367.824,252.343 Z "/>
		<path id="dp_path020" fill="white" fill-rule="evenodd" d="M 340.328,242.645 L 338.859,238.591 L 335.728,239.645 L 336.783,236.515 L 332.728,235.045 L 336.783,233.576 L 335.728,230.445 L 338.859,231.5 L 340.328,227.445 L 341.797,231.5 L 344.928,230.445 L 343.873,233.576 L 347.928,235.045 L 343.873,236.515 L 344.928,239.645 L 341.797,238.591 Z "/>
		<path id="dp_path021" fill="white" fill-rule="evenodd" d="M 322.028,223.045 L 320.565,219.009 L 317.448,220.059 L 318.497,216.941 L 314.461,215.479 L 318.497,214.016 L 317.448,210.899 L 320.565,211.948 L 322.028,207.912 L 323.491,211.948 L 326.608,210.899 L 325.559,214.016 L 329.595,215.479 L 325.559,216.941 L 326.608,220.059 L 323.491,219.009 Z "/>
		<path id="dp_path022" fill="white" fill-rule="evenodd" d="M 398.661,262.245 L 400.131,258.209 L 403.261,259.259 L 402.207,256.141 L 406.261,254.679 L 402.207,253.216 L 403.261,250.099 L 400.131,251.148 L 398.661,247.112 L 397.192,251.148 L 394.061,250.099 L 395.116,253.216 L 391.061,254.679 L 395.116,256.141 L 394.061,259.259 L 397.192,258.209 Z "/>
		<path id="dp_path023" fill="white" fill-rule="evenodd" d="M 485.661,196.779 L 487.131,192.743 L 490.261,193.792 L 489.207,190.675 L 493.261,189.212 L 489.207,187.749 L 490.261,184.632 L 487.131,185.681 L 485.661,181.645 L 484.192,185.681 L 481.061,184.632 L 482.116,187.749 L 478.061,189.212 L 482.116,190.675 L 481.061,193.792 L 484.192,192.743 Z "/>
		<path id="dp_path024" fill="white" fill-rule="evenodd" d="M 428.695,256.512 L 430.157,252.476 L 433.275,253.525 L 432.225,250.408 L 436.261,248.945 L 432.225,247.483 L 433.275,244.365 L 430.157,245.415 L 428.695,241.379 L 427.232,245.415 L 424.115,244.365 L 425.164,247.483 L 421.128,248.945 L 425.164,250.408 L 424.115,253.525 L 427.232,252.476 Z "/>
		<path id="dp_path025" fill="white" fill-rule="evenodd" d="M 454.728,242.712 L 456.197,238.676 L 459.328,239.725 L 458.273,236.608 L 462.328,235.145 L 458.273,233.683 L 459.328,230.565 L 456.197,231.615 L 454.728,227.579 L 453.259,231.615 L 450.128,230.565 L 451.183,233.683 L 447.128,235.145 L 451.183,236.608 L 450.128,239.725 L 453.259,238.676 Z "/>
		<path id="dp_path026" fill="white" fill-rule="evenodd" d="M 473.028,223.179 L 474.491,219.143 L 477.608,220.192 L 476.559,217.075 L 480.595,215.612 L 476.559,214.149 L 477.608,211.032 L 474.491,212.081 L 473.028,208.045 L 471.565,212.081 L 468.448,211.032 L 469.497,214.149 L 465.461,215.612 L 469.497,217.075 L 468.448,220.192 L 471.565,219.143 Z "/>
		<g id="dp_group027">
			<path id="dp_path028" fill="black" fill-rule="evenodd" d="M 353.293,169.308 C 353.296,169.331 353.253,169.312 353.231,169.301 C 348.519,166.82 346.792,152.959 349.671,146.816 C 346.112,148.451 344.308,150.347 341.521,155.609 C 341.799,151.76 343.136,146.76 347.792,142.877 C 351.944,139.415 357.263,136.832 360.631,137.625 C 365.753,138.832 363.325,139.54 368.276,139.187 C 372.927,138.855 376.729,136.551 378.771,135.765 C 380.811,134.979 378.66,129.196 380.184,130.136 C 385.86,133.629 393.087,135.675 400.651,131.108 C 381.908,118.916 399.956,112.983 395.835,110.335 C 387.612,105.052 374.309,99.4133 361.827,124.095 C 368.399,86.4 402.159,99.26 412.293,107.135 C 420.035,113.151 388.377,117.433 407.092,130.013 C 411.531,127.616 413.547,120.921 438.153,132.056 C 426.575,129.708 417.856,129.676 416.765,132.795 C 424.672,133.611 435.94,135.633 448.492,150.109 C 454.189,156.68 459.909,159.561 466.563,162.375 C 462.737,162.368 457.78,161.573 452.471,159.496 C 447.163,157.419 441.052,153.344 439.757,151.305 C 445.948,165.349 452.129,180.723 467.188,185.416 C 461.835,188.816 447.967,178.663 445.243,172.087 C 452.751,186.42 450.284,201.647 447.509,212.14 C 448.375,203.88 448.376,190.068 443.887,182.653 C 442.843,194.544 436.459,215.244 425.308,218.204 C 428.053,214.959 431.057,212.425 433.783,207.451 C 432.549,209.293 420.931,219.681 417.315,221.187 C 413.856,217.427 389.891,210.931 388.784,206.112 C 392.556,204.687 407.18,195.656 410.121,190.901 C 414.263,184.208 415.469,179.54 413.427,173.745 C 411.796,169.119 404.459,161.644 397.819,164.755 C 389.351,168.72 385.047,172.735 383.564,174.863 C 382.363,176.588 383.004,177.153 388.917,177.524 C 394.831,177.895 398.265,175.425 398.563,175.887 C 398.861,176.349 396.399,179.157 390.707,180.296 C 385.015,181.433 377.544,181.547 375.844,182.436 C 374.193,183.301 375.504,184.824 380.504,185.636 C 385.505,186.448 388.155,185.369 391.325,184.239 C 394.496,183.108 396.04,180.408 395.187,181.157 C 394.333,181.908 393.635,186.959 386.207,188.736 C 378.777,190.513 376.835,187.345 373.728,187.704 C 371.476,187.965 372.256,190.435 367.563,190.888 C 362.868,191.343 358.26,188.803 357.601,188.437 C 356.943,188.071 359.675,188.78 363.612,188.695 C 365.771,188.647 367.033,186.723 366.899,186.361 C 366.765,185.999 365.856,186.463 362.813,186.521 C 359.771,186.58 357.277,183.543 357.196,183.177 C 357.116,182.812 358.199,183.905 362.329,184.329 C 366.46,184.755 368.972,183.473 369.587,183.04 C 370.201,182.608 368.544,183.143 366.019,181.737 C 363.493,180.332 362.971,178.46 363.227,178.239 C 363.483,178.019 364.511,180.331 367.553,180.412 C 369.921,180.476 371.752,179.185 371.403,179.333 C 371.257,179.395 370.219,179.293 369.156,179.095 C 367.861,178.853 366.353,177.913 366.741,178.073 C 366.841,178.115 368.044,178.039 369.773,177.909 C 370.652,177.843 371.669,177.761 372.747,177.673 C 374.219,177.553 374.069,177.949 375.947,176.655 C 376.472,176.292 373.175,173.908 373.719,173.685 C 373.891,173.615 377.451,174.563 377.812,173.525 C 378.299,172.128 379.119,170.347 380.375,168.931 C 381.632,167.515 386.527,161.323 384.271,162.197 C 381.337,163.333 368.679,173.291 362.773,175.744 C 356.868,178.199 352.715,180.547 346.944,179.484 C 339.7,178.149 331.519,178.545 327.151,186.407 C 328.188,181.231 331.183,179.111 334.037,176.205 C 330.415,176.688 329.701,176.652 323.872,179.305 C 329.011,173.613 340.167,170.959 345.733,173.999 C 353.851,178.432 366.875,168.369 373.057,164.064 C 379.549,159.544 383.756,157.74 388.076,154.293 C 385.979,152.941 384.119,153.38 382.073,152.753 C 380.028,152.127 376.768,149.596 375.631,149.608 C 374.665,149.617 373.98,150.003 375.248,152.824 C 376.516,155.645 377.8,156.069 377.387,156.032 C 375.209,155.839 373.504,155.189 372.259,154.104 C 370.967,152.98 370.168,151.389 369.848,149.353 C 369.771,148.864 369.224,148.653 368.496,148.536 C 367.809,148.424 366.961,148.393 366.188,148.292 C 366.188,148.292 366.187,148.291 366.187,148.291 C 366.072,150.887 366.727,152.511 368.621,155.309 C 365.987,154.635 363.451,153.599 360.399,148.968 C 359.557,147.691 357.963,148.463 356.2,149.719 C 353.724,151.484 352.456,155.673 352.356,159.861 C 352.239,164.808 353.147,167.735 353.293,169.308 Z "/>
			<path id="dp_path029" fill="white" fill-rule="evenodd" d="M 376.272,141.185 C 375.86,140.508 379.995,137.612 382.117,137.143 C 384.241,136.673 388.081,136.684 390.281,137.239 C 392.483,137.792 401.856,137.203 400.908,137.864 C 399.959,138.525 386.621,140.981 384.588,141.208 C 382.555,141.435 376.683,141.863 376.272,141.185 Z "/>
			<path id="dp_path030" fill="white" fill-rule="evenodd" d="M 356.027,142.079 C 355.848,141.693 357.285,141.084 358.157,141.048 C 359.031,141.012 362.248,141.429 362.427,141.815 C 362.605,142.2 361.103,143.063 359.231,143.361 C 357.359,143.66 356.205,142.464 356.027,142.079 Z "/>
			<path id="dp_path031" fill="white" fill-rule="evenodd" d="M 409.595,146.813 C 414.628,146.279 425.417,149.005 430.452,155.943 C 436.093,163.717 436.387,171.244 435.528,176.516 C 434.671,181.787 429.555,196.268 423.384,202.263 C 419.855,205.695 418.161,207.101 412.585,210.323 C 412.761,209.624 414.717,207.563 417.04,204.773 C 419.481,201.843 422.327,198.108 423.931,194.309 C 426.995,187.049 427.001,180.529 426.897,179.517 C 424.959,184.756 425.287,185.744 423.331,189.237 C 421.433,192.623 420.456,193.377 415.864,198.213 C 419.971,190.948 423.667,184.724 424.259,177.355 C 424.849,169.987 425.133,165.377 422.04,160.824 C 418.552,155.691 416.431,154.545 412.765,152.461 C 408.469,150.02 401.349,150.449 395.761,151.687 C 399.895,149.332 402.776,147.537 409.595,146.813 Z "/>
			<path id="dp_path032" fill="red" fill-rule="evenodd" d="M 375.968,141.264 C 375.843,140.867 377.52,139.799 378.237,139.364 C 378.955,138.928 380.035,138.416 381.332,138.045 C 381.577,137.976 382.215,137.988 384.075,139.049 C 383.408,141.196 383.708,141.084 382.667,141.376 C 381.625,141.667 380.128,141.712 378.989,141.745 C 377.852,141.777 376.093,141.661 375.968,141.264 Z "/>
			<path id="dp_path033" fill="black" fill-rule="evenodd" d="M 428.728,188.952 C 430.984,176.103 432.464,156.8 410.733,149.297 C 423.068,149.797 441.841,162.147 428.728,188.952 Z "/>
		</g>
	</g>
</svg>